<svg width="53" height="47" viewBox="0 0 53 47" fill="none" xmlns="http://www.w3.org/2000/svg">
<path d="M7.10449 22.3389V23.1689C7.1696 25.9521 7.4707 27.9134 8.00781 29.0527C8.5612 30.1758 9.73307 30.7373 11.5234 30.7373C13.2975 30.7373 14.4694 30.1188 15.0391 28.8818C15.3809 28.1494 15.5518 26.9124 15.5518 25.1709V0H23.0713V25.0488C23.0713 28.1087 22.5423 30.5339 21.4844 32.3242C19.694 35.3516 16.4632 36.8652 11.792 36.8652C7.12077 36.8652 3.98763 35.6445 2.39258 33.2031C0.797526 30.7454 0 27.4007 0 23.1689V22.3389H7.10449ZM29.5547 41.0889L30.4336 41.1377C31.1172 41.1702 31.7682 41.1458 32.3867 41.0645C33.0052 40.9831 33.526 40.7959 33.9492 40.5029C34.3561 40.2262 34.7305 39.6484 35.0723 38.7695C35.4303 37.8906 35.5768 37.3535 35.5117 37.1582L25.7461 9.375H33.4854L39.2959 29.0039L44.7891 9.375H52.1865L43.0557 35.5469C41.2979 40.5924 39.9062 43.7174 38.8809 44.9219C37.8555 46.1426 35.8047 46.7529 32.7285 46.7529C32.11 46.7529 31.6136 46.7448 31.2393 46.7285C30.8649 46.7285 30.3034 46.7041 29.5547 46.6553V41.0889Z" fill="#1E1E1E"/>
</svg>
